<svg width="79" height="72" viewBox="0 0 79 72" fill="none" xmlns="http://www.w3.org/2000/svg">
<path id="Combined Shape" fill-rule="evenodd" clip-rule="evenodd" d="M77.0585 35.6805L78.3814 37.0034C79.1126 37.7346 79.1126 38.918 78.3814 39.6492L46.6324 71.3982C45.9012 72.1294 44.7178 72.1294 43.9866 71.3982L29.1208 56.5323C27.0343 57.5257 24.4571 57.1602 22.7324 55.4355L17.4409 50.144C15.7162 48.4193 15.3506 45.842 16.3441 43.7556L1.47821 28.8898C0.747011 28.1586 0.747011 26.9752 1.47821 26.244L33.2272 -5.50501C33.9584 -6.23621 35.1418 -6.23621 35.873 -5.50501L37.1959 -4.18213L9.41547 23.5983C7.22708 25.7867 7.31527 29.4353 9.50366 31.6237L21.6356 43.7556C20.6422 45.8421 21.0077 48.4193 22.7324 50.144C24.4571 51.8687 27.0344 52.2343 29.1208 51.2408L41.2527 63.3727C43.4411 65.5611 47.0897 65.6493 49.2781 63.4609L77.0585 35.6805ZM58.0141 12.2166L27.6703 42.5604C28.0187 41.0333 28.8515 35.0971 22.7324 28.978C22.0012 28.2468 22.0012 27.0634 22.7324 26.3322L49.1899 -0.125311C49.9211 -0.856508 51.1045 -0.856508 51.8357 -0.125311C56.3247 4.36365 57.7132 8.85534 58.0141 12.2166ZM30.6697 47.4982L43.8984 60.727C44.6296 61.4582 45.813 61.4582 46.5442 60.727L75.6475 31.6237C76.3787 30.8925 76.3787 29.7092 75.6475 28.978L65.0645 18.395C63.5698 16.9003 61.6875 16.0525 59.7392 15.783L28.0239 47.4982C28.7538 46.7684 29.9398 46.7684 30.6697 47.4982ZM41.2527 -2.77106C41.9839 -3.50226 43.1672 -3.50226 43.8984 -2.77106L45.2213 -1.44819L20.0867 23.6865C17.8983 25.8749 17.8983 29.4353 20.0867 31.6237C24.092 35.629 24.2872 39.3197 24.1301 40.9586L12.1494 28.978C11.4182 28.2468 11.4182 27.0634 12.1494 26.3322L41.2527 -2.77106Z" fill="#F04667"/>
</svg>
