<svg width="67" height="56" viewBox="0 0 67 56" fill="none" xmlns="http://www.w3.org/2000/svg">
<path id="XMLID_482_" fill-rule="evenodd" clip-rule="evenodd" d="M0.937084 40.1386L0.917901 39.8484L0.917869 39.8479C-0.414887 19.6965 -1.29536 6.38368 8.87474 -3.78642C17.2882 -12.1999 30.4843 -12.1851 38.9166 -3.75242C42.7066 0.0376089 45.0276 5.20599 45.4431 10.5583C50.7945 10.9732 55.963 13.294 59.7529 17.0839C68.1851 25.5161 68.1999 38.7118 59.7863 47.1254C55.1359 51.7758 48.7743 54.3482 39.7662 55.221C32.0535 55.9684 22.9026 55.4918 10.8168 54.7367L10.7792 54.7342L4.7413 54.2867C3.93232 54.2267 3.20547 53.8746 2.66615 53.3352C2.12683 52.7959 1.77474 52.0694 1.7148 51.2602L1.26673 45.2217C1.26589 45.2104 1.26517 45.199 1.26447 45.1877L1.26422 45.1838C1.15607 43.4514 1.04495 41.7703 0.937084 40.1386ZM27.5323 22.2948L21.36 16.1225L15.2014 22.2811L21.3737 28.4534L15.2153 34.6118L21.3879 40.7844L27.5463 34.626L33.7188 40.7984L39.8774 34.6398L33.7049 28.4674L39.8637 22.3086L33.6911 16.136L27.5323 22.2948Z" fill="#E6A532"/>
</svg>
