<svg width="79" height="68" viewBox="0 0 79 68" fill="none" xmlns="http://www.w3.org/2000/svg">
<path id="Combined Shape" fill-rule="evenodd" clip-rule="evenodd" d="M71.499 45.7176L76.2269 40.9897C79.3651 37.8516 79.3651 32.7727 76.2269 29.6345L65.3879 18.7955L67.4525 16.7309C69.7297 14.4536 69.7297 10.7498 67.4525 8.47254L59.1941 0.2142C56.9169 -2.06304 53.213 -2.06304 50.9358 0.2142L48.8712 2.27879L38.0321 -8.56028C34.894 -11.6985 29.8151 -11.6985 26.6769 -8.56028L21.949 -3.83239L38.1354 28.5403C38.2386 28.7674 38.3831 28.9532 38.5483 29.1184C38.7134 29.2835 38.8993 29.4281 39.1264 29.5313L71.499 45.7176ZM53.0004 6.40795L61.2587 14.6663L63.3233 12.6017L55.0649 4.34337L53.0004 6.40795ZM37.165 33.4334C36.6489 33.2063 36.0088 32.7727 35.4514 32.2153C34.894 31.6578 34.4604 31.0178 34.1507 30.3365L18.687 -0.570342L2.93419 15.1824C-0.203975 18.3206 -0.203975 23.3995 2.93419 26.5377L41.129 64.7325C44.2672 67.8706 49.3461 67.8706 52.4842 64.7325L68.237 48.9797L37.165 33.4334Z" fill="#D96C47"/>
</svg>
