<svg width="90" height="76" viewBox="0 0 90 76" fill="none" xmlns="http://www.w3.org/2000/svg">
<g id="Shape 2">
<path id="Shape" fill-rule="evenodd" clip-rule="evenodd" d="M77.2235 46.9535L64.9097 66.8464C61.5636 72.2515 54.0506 73.1172 49.5611 68.6277C47.6482 66.7148 46.8688 63.8997 47.5244 61.279L49.4692 53.4969C49.8026 52.1655 49.4067 50.7352 48.4362 49.7648L25.8343 27.1629C24.8639 26.1924 23.4345 25.7965 22.103 26.1299L14.3196 28.0751C11.6999 28.7307 8.8847 27.9513 6.974 26.0406C2.4776 21.5442 3.35316 14.0325 8.75315 10.6899L28.646 -1.62402C35.9679 -6.15709 44.0968 -3.77065 48.5535 0.686071L74.9139 27.0464C81.0031 33.1356 80.5412 41.5949 77.2235 46.9535ZM38.7917 18.8343L40.6834 20.726C41.5978 21.6404 43.0806 21.6404 43.995 20.726C44.9098 19.8112 44.9098 18.3284 43.9955 17.414L42.1037 15.5223L43.9955 13.6305C44.9098 12.7162 44.9098 11.2333 43.995 10.3185C43.0806 9.40413 41.5978 9.40413 40.6834 10.3185L38.7917 12.2102L36.9 10.3185C35.9856 9.40413 34.5028 9.40413 33.588 10.3189C32.6736 11.2333 32.6736 12.7162 33.588 13.6305L35.4797 15.5223L33.588 17.414C32.6736 18.3284 32.6736 19.8112 33.588 20.7256C34.5028 21.6404 35.9856 21.6404 36.9 20.726L38.7917 18.8343ZM54.8735 34.9161C53.9596 34.0021 53.9596 32.5184 54.8735 31.6045C55.7879 30.6901 57.272 30.6906 58.1855 31.6041C59.0999 32.5184 59.0999 34.0021 58.1855 34.9165C57.2716 35.8305 55.7879 35.8305 54.8735 34.9161ZM54.8735 38.6995C53.9596 39.6135 53.96 41.0976 54.8739 42.0116C55.7879 42.9255 57.2716 42.9255 58.1855 42.0116C59.0995 41.0976 59.0999 39.6135 58.186 38.6995C57.272 37.7856 55.7875 37.7856 54.8735 38.6995ZM61.969 34.9165C61.055 34.0026 61.0546 32.5184 61.969 31.6041C62.8829 30.6901 64.3671 30.6906 65.281 31.6045C66.195 32.5184 66.195 34.0021 65.281 34.9161C64.3666 35.8305 62.8829 35.8305 61.969 34.9165ZM61.9686 38.6995C61.0546 39.6135 61.055 41.0976 61.969 42.0116C62.8829 42.9255 64.3666 42.9255 65.2806 42.0116C66.195 41.0972 66.195 39.6135 65.281 38.6995C64.3671 37.7856 62.8829 37.7852 61.9686 38.6995Z" fill="#3F9CBB"/>
</g>
</svg>
