<svg width="75" height="85" viewBox="0 0 75 85" fill="none" xmlns="http://www.w3.org/2000/svg">
<g id="Group 14">
<path id="Shape" fill-rule="evenodd" clip-rule="evenodd" d="M65.0915 31.2242C58.9343 37.3814 50.615 36.4078 45.8338 31.6266L35.3347 21.1275L21.8608 21.9049C19.9586 22.0161 18.9371 19.711 20.2757 18.3724L26.5409 12.1071C22.7417 6.89567 23.192 -0.469298 27.8926 -5.16995C34.0213 -11.2987 42.3364 -10.3863 47.1503 -5.57233L65.0915 12.3689C70.2893 17.5666 70.2903 26.0255 65.0915 31.2242ZM57.2392 23.7743C58.2412 22.7722 58.2412 21.1471 57.2382 20.144C56.2362 19.142 54.611 19.142 53.609 20.144C52.6069 21.1461 52.6069 22.7712 53.609 23.7733C54.612 24.7763 56.2371 24.7763 57.2392 23.7743ZM35.7449 5.90925C34.7429 4.9072 34.7429 3.28204 35.7449 2.27999C36.747 1.27794 38.3721 1.27794 39.3742 2.27999C40.3772 3.28302 40.3772 4.90818 39.3752 5.91023C38.3731 6.91228 36.748 6.91228 35.7449 5.90925ZM48.3067 14.8418C49.3087 13.8397 49.3087 12.2145 48.3067 11.2125C47.3046 10.2104 45.6795 10.2104 44.6774 11.2125C43.6754 12.2145 43.6754 13.8397 44.6774 14.8418C45.6795 15.8438 47.3046 15.8438 48.3067 14.8418Z" fill="#5A1CBB"/>
<path id="Shape_2" fill-rule="evenodd" clip-rule="evenodd" d="M37.2187 30.7564L55.1599 48.6976C60.031 53.5687 60.8167 61.8961 54.7575 67.9553C50.0568 72.656 42.6919 73.1062 37.4804 69.307L31.2152 75.5723C29.8681 76.9194 27.5714 75.874 27.6816 73.9881L28.459 60.5142L17.96 50.0151C13.1011 45.1562 12.2902 36.8296 18.3624 30.7574C23.5611 25.5586 32.0209 25.5586 37.2187 30.7564ZM25.8134 38.6086C24.8104 39.6117 24.8104 41.2368 25.8134 42.2398C26.8154 43.2419 28.4406 43.2419 29.4436 42.2389C30.4457 41.2368 30.4457 39.6117 29.4436 38.6096C28.4406 37.6066 26.8154 37.6066 25.8134 38.6086ZM34.7449 51.1714C33.7429 50.1693 33.7429 48.5442 34.7459 47.5411C35.7479 46.5391 37.3731 46.5391 38.3751 47.5411C39.3772 48.5432 39.3772 50.1683 38.3751 51.1704C37.3721 52.1734 35.747 52.1734 34.7449 51.1714ZM43.6774 56.4727C42.6744 57.4757 42.6744 59.1008 43.6774 60.1039C44.6795 61.1059 46.3046 61.1059 47.3076 60.1029C48.3097 59.1008 48.3097 57.4757 47.3076 56.4736C46.3046 55.4706 44.6795 55.4706 43.6774 56.4727Z" fill="#5A1CBB"/>
</g>
</svg>
